<?xml version="1.0" encoding="UTF-8"?>
<svg version="1.1" xmlns="http://www.w3.org/2000/svg" width="512" height="512">
<path d="M0 0 C5.51479116 4.05146043 7.81414091 10.51655367 10.54345703 16.57373047 C12.13795217 20.07787765 13.78389067 23.55679432 15.43359375 27.03515625 C22.09703627 41.10841837 28.66667551 55.21887018 34.875 69.5 C36.13054687 69.2834375 37.38609375 69.066875 38.6796875 68.84375 C54.24276859 66.22268137 67.29254931 66.33918233 82.875 69.5 C84.82312066 65.28255854 86.77094142 61.06497904 88.71826172 56.84716797 C90.36856721 53.27278308 92.02009013 49.698964 93.67236328 46.12548828 C97.26878965 38.34330518 100.86055838 30.56003836 104.37890625 22.7421875 C105.1217688 21.09669922 105.1217688 21.09669922 105.87963867 19.41796875 C106.76736293 17.44672429 107.64940808 15.47290844 108.5246582 13.49609375 C111.03255177 7.93836624 113.35219615 3.24193599 118.5 -0.3125 C124.15803488 -2.30329005 129.42634741 -2.30052104 135.125 -0.4375 C139.54354291 2.67556432 143.14890999 6.32172996 144.875 11.5 C145.88970535 23.06764095 139.03703862 33.65349726 134.30392456 43.90255737 C131.1412664 50.75930282 128.01040037 57.63075749 124.875 64.5 C124.57974426 65.14638428 124.28448853 65.79276855 123.98028564 66.45874023 C122.23845434 70.27657014 120.51886313 74.10370262 118.8125 77.9375 C118.38952637 78.86457764 117.96655273 79.79165527 117.53076172 80.74682617 C116.97219482 82.01490112 116.97219482 82.01490112 116.40234375 83.30859375 C116.07999756 84.02845459 115.75765137 84.74831543 115.42553711 85.48999023 C114.76578888 87.89872955 115.01585227 89.17674434 115.875 91.5 C117.29290581 93.34817476 117.29290581 93.34817476 119.0625 95.125 C126.61372071 103.52554001 130.50942679 112.79366712 133.875 123.5 C134.12378906 124.24636719 134.37257813 124.99273437 134.62890625 125.76171875 C137.26589957 135.14793974 138.02686383 148.97256468 133.21484375 157.671875 C129.74656112 162.40410902 126.16367404 165.9465877 120.875 168.5 C121.7314209 168.50410889 122.5878418 168.50821777 123.47021484 168.51245117 C126.69509179 168.53966992 129.91871692 168.58900387 133.14306641 168.65258789 C134.52966878 168.67556404 135.91644062 168.69011505 137.30322266 168.69555664 C146.96469213 168.74089928 155.48688723 169.43597919 162.83544922 176.3425293 C165.55953867 179.26712701 167.1034524 181.53823312 167.875 185.5 C177.44434051 182.30185868 186.87085934 178.81435918 196.1875 174.9375 C197.08815186 174.57406494 197.98880371 174.21062988 198.91674805 173.83618164 C200.18965698 173.29658813 200.18965698 173.29658813 201.48828125 172.74609375 C202.23891846 172.43341553 202.98955566 172.1207373 203.76293945 171.79858398 C208.51974421 168.87389961 210.06819985 165.42827526 211.32763672 160.14794922 C211.79313124 157.91156038 212.24266881 155.67181481 212.6796875 153.4296875 C212.93007782 152.20555145 213.18046814 150.98141541 213.43844604 149.72018433 C214.12254522 146.35657198 214.79335625 142.99089323 215.4563446 139.62309265 C216.02117054 136.75873739 216.59294074 133.89578367 217.16441727 131.03274918 C218.50953114 124.2911346 219.84690371 117.54797654 221.18359375 110.8046875 C221.33287952 110.05228916 221.4821653 109.29989082 221.63597488 108.52469254 C222.40413427 104.64918814 223.16708464 100.772758 223.92138672 96.89453125 C224.66877859 93.0538251 225.42926982 89.21591783 226.19857407 85.3795433 C226.48482791 83.93967888 226.7663274 82.49885992 227.04272842 81.05707169 C227.42631476 79.05920949 227.82827177 77.06490119 228.23095703 75.07080078 C228.45268585 73.9428006 228.67441467 72.81480042 228.90286255 71.65261841 C230.85949063 65.30732052 234.18899625 61.76642768 239.875 58.5 C245.30560835 56.68979722 249.97243772 56.79902253 255.125 59.1875 C259.61241845 61.67365324 262.23974899 64.59424698 263.875 69.5 C265.08895485 80.70991858 262.17233603 91.82880924 259.96484375 102.7421875 C259.55520032 104.79891583 259.14599292 106.85573105 258.73719788 108.91262817 C257.88014244 113.20920401 257.01392382 117.50381265 256.1418457 121.79736328 C255.0332559 127.26193946 253.95369168 132.73179683 252.88179684 138.20367241 C252.04551169 142.4499554 251.19060554 146.69233629 250.33059883 150.93387222 C249.92521144 152.94733907 249.52612 154.96208544 249.13383293 156.9781456 C245.54618273 175.34006437 240.7176715 190.69463586 224.72265625 201.73416138 C220.06372832 204.62317401 215.13030196 206.58284249 210.03125 208.55859375 C208.94034058 208.99261002 207.84943115 209.42662628 206.72546387 209.87379456 C204.44209648 210.77960055 202.15628628 211.6792711 199.86816406 212.57299805 C196.3521311 213.94643306 192.84358403 215.33772412 189.3359375 216.73242188 C187.10978133 217.61300707 184.88323266 218.49260081 182.65625 219.37109375 C181.60425415 219.78660995 180.5522583 220.20212616 179.46838379 220.63023376 C178.49977417 221.00805496 177.53116455 221.38587616 176.53320312 221.77514648 C175.25274109 222.27642311 175.25274109 222.27642311 173.94641113 222.78782654 C171.875 223.5 171.875 223.5 169.875 223.5 C169.875 236.7 169.875 249.9 169.875 263.5 C174.27199219 263.45359375 178.66898437 263.4071875 183.19921875 263.359375 C186.74020692 263.33358947 190.28116799 263.31192026 193.82219696 263.29299927 C197.54092239 263.27201489 201.25927367 263.24405036 204.9777832 263.19824219 C208.56993544 263.1542755 212.16172854 263.13075795 215.75412941 263.12049103 C217.76847318 263.10967434 219.78267563 263.0785328 221.79679871 263.04681396 C237.64201972 263.04301556 250.08566059 267.90095323 261.62109375 278.6640625 C262.17671494 279.1801004 262.73233612 279.69613831 263.30479431 280.22781372 C270.25692316 286.73128937 277.00454047 293.44348479 283.73510742 300.17480469 C285.96058848 302.39806545 288.19400953 304.61315049 290.42773438 306.828125 C291.85986259 308.25732408 293.29152081 309.6869943 294.72265625 311.1171875 C295.38306412 311.77040985 296.04347198 312.4236322 296.72389221 313.09664917 C302.09076614 318.4902231 306.51801132 323.2875336 307.1875 331.1875 C307.09914465 337.18461915 304.68443596 341.73695983 300.4375 345.875 C295.47273239 349.02338922 291.8069214 350.01137253 285.875 349.5 C279.83415886 347.46920911 276.28583646 344.44120503 271.91015625 339.890625 C271.27315292 339.24559021 270.6361496 338.60055542 269.97984314 337.93597412 C267.95598799 335.88329019 265.94627319 333.81743583 263.9375 331.75 C261.92979517 329.69947511 259.91917737 327.65189518 257.90586853 325.60687256 C256.65867941 324.33837112 255.41504504 323.06636013 254.17579651 321.7901001 C250.47201906 318.00302455 246.62852898 314.4576283 242.60549927 311.01100159 C239.82618058 308.58421354 237.34660381 305.89378176 234.83203125 303.19921875 C230.93611049 299.81653306 227.02463798 299.24705409 221.9831543 299.18115234 C220.82232834 299.16128265 219.66150238 299.14141296 218.46549988 299.12094116 C217.22262711 299.10938995 215.97975433 299.09783875 214.69921875 299.0859375 C212.77877495 299.05688828 212.77877495 299.05688828 210.8195343 299.0272522 C207.4281222 298.97606052 204.03667055 298.93636593 200.64508057 298.89910889 C197.1793042 298.85898751 193.71369052 298.80793242 190.24804688 298.7578125 C183.45713605 298.66181855 176.66615406 298.57675348 169.875 298.5 C169.88547363 299.61858398 169.89594727 300.73716797 169.90673828 301.88964844 C169.94331403 306.0942049 169.96603528 310.29874771 169.98486328 314.50341797 C169.99483616 316.31301245 170.00841932 318.12259118 170.02587891 319.93212891 C170.0505157 322.5537734 170.06376874 325.1751257 170.0703125 327.796875 C170.0743811 328.6485173 170.07844971 329.50015961 170.0826416 330.37760925 C170.05499474 335.22848198 169.55940924 339.5449826 168.4140625 344.28515625 C167.65164027 348.13295195 167.65164027 348.13295195 169.04931641 351.67236328 C170.94010782 353.76038245 172.9077064 355.45149252 175.125 357.1875 C175.86484131 357.82268555 176.60468262 358.45787109 177.36694336 359.11230469 C179.5088225 360.94466372 181.68476821 362.72595931 183.875 364.5 C196.39394065 375.03129834 203.32613066 385.63961668 204.95703125 402.01953125 C204.73274295 411.53576327 202.27901079 419.98759877 198.5859375 428.6875 C198.16381989 429.71069336 197.74170227 430.73388672 197.30679321 431.78808594 C195.96627817 435.03041678 194.60874957 438.2652744 193.25 441.5 C191.92150002 444.69626319 190.59654499 447.89398019 189.27178955 451.09179688 C188.40113832 453.18943516 187.52742092 455.28580354 186.65057373 457.38085938 C184.57994046 462.33527811 182.54843022 467.29763392 180.61816406 472.30859375 C180.26549469 473.21834961 179.91282532 474.12810547 179.54946899 475.06542969 C178.89992146 476.75104762 178.25961814 478.44027279 177.63095093 480.13378906 C175.22215644 486.36908042 172.5597888 490.98030823 166.5625 494.375 C160.62707082 496.1858089 156.22817307 496.36979235 150.625 493.8125 C146.14089624 491.30667731 143.77353072 488.38263579 141.5625 483.75 C139.63624463 474.64406554 143.47274978 466.66171124 146.8984375 458.3984375 C147.40646177 457.15051232 147.91349332 455.9021826 148.41958618 454.6534729 C149.74657146 451.38713371 151.08716636 448.12655465 152.4307251 444.86700439 C153.79055599 441.56067938 155.13671621 438.24880016 156.484375 434.9375 C164.23467491 415.91894504 164.23467491 415.91894504 166.66699219 410.44580078 C168.25818391 406.56558264 168.96548171 403.59877587 167.875 399.5 C165.94323834 396.59140647 163.57116054 394.3447374 161 392 C160.34902344 391.36835938 159.69804687 390.73671875 159.02734375 390.0859375 C155.94363876 386.7053322 155.94363876 386.7053322 151.875 385.5 C150.30403603 387.42745195 148.83383587 389.36533936 147.375 391.375 C130.25001685 414.1576758 104.85942627 429.58377612 76.57421875 433.99609375 C46.91747409 437.71219855 16.4642888 431.64603347 -7.64331055 413.52416992 C-18.05199201 405.40712631 -26.68200544 396.43579648 -34.125 385.5 C-38.25389484 387.16358385 -41.22038774 390.08359153 -44.375 393.125 C-44.92929688 393.62128906 -45.48359375 394.11757813 -46.0546875 394.62890625 C-46.57804688 395.13550781 -47.10140625 395.64210938 -47.640625 396.1640625 C-48.11790039 396.61217285 -48.59517578 397.0602832 -49.08691406 397.52197266 C-51.39061316 401.91157052 -50.41973264 406.54336779 -49.03027344 411.05322266 C-48.52012695 412.2447998 -48.00998047 413.43637695 -47.484375 414.6640625 C-47.2058519 415.32651474 -46.9273288 415.98896698 -46.6403656 416.67149353 C-46.04161471 418.09125116 -45.43648997 419.50833498 -44.82553101 420.92288208 C-43.86138879 423.15653342 -42.91527626 425.39705722 -41.97387695 427.64038086 C-40.67539573 430.73267455 -39.3715823 433.82261698 -38.06298828 436.91064453 C-35.36012527 443.29973576 -32.7045381 449.70737655 -30.09753418 456.13616943 C-29.33112894 458.01678799 -28.55113631 459.8913642 -27.77050781 461.76611328 C-21.76804584 476.56100143 -21.76804584 476.56100143 -24.1875 484.75 C-26.35882119 489.72718374 -29.78182895 492.20508968 -34.5 494.8125 C-40.92484556 496.49519765 -45.46504712 495.77555486 -51.265625 492.86328125 C-56.86675342 488.75657155 -58.90864534 482.73064162 -61.35546875 476.50390625 C-61.75018875 475.5199437 -62.14490875 474.53598114 -62.55158997 473.52220154 C-63.81329093 470.37211975 -65.0632008 467.21751804 -66.3125 464.0625 C-67.54147146 460.98217931 -68.77285335 457.90282919 -70.00427246 454.82348633 C-70.82165877 452.77729458 -71.63733349 450.73041827 -72.45129395 448.68286133 C-74.49814096 443.53862037 -76.5682758 438.40591085 -78.6875 433.29101562 C-79.09897781 432.2964183 -79.51045563 431.30182098 -79.93440247 430.27708435 C-80.7125424 428.40138148 -81.49458654 426.52729151 -82.28129578 424.65516663 C-87.71937743 411.5409523 -88.87590174 398.61393409 -83.4609375 385.2109375 C-77.76397842 373.65044159 -67.96004072 364.61883145 -57.7734375 356.94140625 C-56.75507813 356.13574219 -55.73671875 355.33007812 -54.6875 354.5 C-53.76066406 353.819375 -52.83382812 353.13875 -51.87890625 352.4375 C-49.41002221 348.30253163 -50.53392722 345.85278727 -51.51049805 341.26757812 C-52.2493408 336.73765307 -52.33174141 332.37777615 -52.3203125 327.796875 C-52.31743477 326.51411682 -52.31743477 326.51411682 -52.3144989 325.20544434 C-52.30063215 322.5535162 -52.27558664 319.90183832 -52.25 317.25 C-52.23994655 315.42578618 -52.2308249 313.60156698 -52.22265625 311.77734375 C-52.20083828 307.35142721 -52.16643984 302.92577453 -52.125 298.5 C-59.58387485 298.56134203 -67.04241037 298.63854156 -74.50090981 298.73571491 C-77.96461259 298.7803494 -81.42819964 298.81962018 -84.89208984 298.84643555 C-88.87883392 298.87753763 -92.86508676 298.93232449 -96.8515625 298.98828125 C-98.08927399 298.99467117 -99.32698547 299.0010611 -100.60220337 299.00764465 C-107.61384609 299.12721348 -112.49816542 299.48298716 -118.05615234 304.10644531 C-118.60223145 304.67459961 -119.14831055 305.24275391 -119.7109375 305.828125 C-120.64292969 306.78138672 -120.64292969 306.78138672 -121.59375 307.75390625 C-122.2228125 308.41261719 -122.851875 309.07132812 -123.5 309.75 C-127.18091305 313.56073778 -130.83708525 317.31059728 -134.875 320.74609375 C-138.33079585 323.71648255 -141.54532598 326.88571805 -144.7265625 330.14453125 C-145.2163559 330.64457672 -145.70614929 331.14462219 -146.21078491 331.65982056 C-148.24191955 333.73615855 -150.27058374 335.81455668 -152.28515625 337.90698242 C-153.77729482 339.45374051 -155.28195891 340.98736949 -156.7890625 342.51953125 C-157.67029785 343.42807861 -158.5515332 344.33662598 -159.45947266 345.27270508 C-163.2550453 348.44425749 -166.64717018 349.33579669 -171.5 349.875 C-177.26821439 349.27828817 -181.45450687 347.21445347 -185.5 343.0625 C-188.65855385 338.08170354 -190.1255818 333.44969607 -189.125 327.5 C-183.64925053 315.38772885 -171.7952812 305.95407107 -162.52392578 296.65869141 C-160.25478087 294.37980141 -157.99655372 292.09043905 -155.73828125 289.80078125 C-136.95216495 270.87456623 -136.95216495 270.87456623 -125.75 266.5625 C-124.79351562 266.18222656 -123.83703125 265.80195313 -122.8515625 265.41015625 C-118.09034524 263.82081009 -113.78900864 263.37642483 -108.77416992 263.38647461 C-106.88277534 263.38658791 -106.88277534 263.38658791 -104.95317078 263.38670349 C-103.58726969 263.39180931 -102.22136902 263.3970253 -100.85546875 263.40234375 C-99.45013988 263.4042103 -98.04481035 263.40563308 -96.63948059 263.40663147 C-92.95205875 263.410438 -89.2646767 263.42025226 -85.57727051 263.43133545 C-81.80998279 263.44158975 -78.0426884 263.44619258 -74.27539062 263.45117188 C-66.89189202 263.46134479 -59.50850247 263.48092118 -52.125 263.5 C-52.125 250.3 -52.125 237.1 -52.125 223.5 C-55.425 222.51 -58.725 221.52 -62.125 220.5 C-65.40486609 219.29176829 -68.6563219 218.06108849 -71.90234375 216.76953125 C-72.79433975 216.41541672 -73.68633575 216.06130219 -74.60536194 215.69645691 C-76.47775245 214.95016825 -78.34911677 214.20130017 -80.21948242 213.44995117 C-83.04649309 212.31890414 -85.8813347 211.20926628 -88.71679688 210.09960938 C-112.2644007 200.74145599 -112.2644007 200.74145599 -119.5625 190.0625 C-120.15933594 189.21816406 -120.75617188 188.37382812 -121.37109375 187.50390625 C-125.38154431 180.63522811 -127.78844243 173.82043028 -129.32324219 166.03979492 C-129.50914413 165.14092056 -129.69504608 164.2420462 -129.88658142 163.31593323 C-130.4922245 160.37282041 -131.08262046 157.426903 -131.671875 154.48046875 C-132.09156643 152.41445906 -132.51184408 150.34856837 -132.93267822 148.28279114 C-133.81015109 143.96291603 -134.67995658 139.64158569 -135.54443359 135.3190918 C-136.64786386 129.80539472 -137.77114619 124.2959657 -138.90037155 118.78750134 C-139.77181984 114.52442511 -140.63215495 110.25916252 -141.48929596 105.99318886 C-141.89883803 103.96210584 -142.31185312 101.93171965 -142.72853851 99.90209007 C-148.23849046 72.9878564 -148.23849046 72.9878564 -144.5 65.5 C-141.26844842 61.41804011 -138.05156734 59.14218911 -133.125 57.5 C-126.90118832 56.97255833 -122.24663927 57.74484852 -117.125 61.5 C-113.55802746 65.33389183 -112.28530873 68.55924818 -111.11157227 73.63427734 C-110.9483954 74.33042837 -110.78521852 75.0265794 -110.6170969 75.74382591 C-108.8530034 83.4011223 -107.32673764 91.11061788 -105.83064079 98.82396317 C-105.32581766 101.42379668 -104.81488876 104.02236756 -104.30238342 106.62069702 C-102.84880063 113.99430947 -101.40387499 121.36959258 -99.9675293 128.74658203 C-99.08202088 133.2922631 -98.18803582 137.83621 -97.28878975 142.37919235 C-96.95024661 144.09847817 -96.61495585 145.81840788 -96.28306389 147.53899002 C-95.82027746 149.93730174 -95.34675556 152.33326624 -94.87084961 154.72900391 C-94.7383078 155.43035461 -94.60576599 156.13170532 -94.46920776 156.85430908 C-93.33083664 162.48973541 -91.95573728 167.0426603 -87.37548828 170.6887207 C-84.01710496 172.56012267 -80.69123955 174.06443 -77.1171875 175.48046875 C-76.46928253 175.73878983 -75.82137756 175.9971109 -75.15383911 176.26325989 C-73.79541948 176.80335826 -72.43568512 177.34016072 -71.07470703 177.8737793 C-68.99601715 178.68906211 -66.92159917 179.51452246 -64.84765625 180.34179688 C-57.62024587 183.33280807 -57.62024587 183.33280807 -50.125 185.5 C-50.021875 184.9225 -49.91875 184.345 -49.8125 183.75 C-49.00551081 181.10894446 -47.90310235 179.60738056 -46.125 177.5 C-45.58875 176.84 -45.0525 176.18 -44.5 175.5 C-36.51512757 168.7758969 -27.541782 168.85140828 -17.5625 168.75 C-16.1581672 168.72178687 -14.75386788 168.69185214 -13.34960938 168.66015625 C-9.94134932 168.58988285 -6.5337567 168.53697202 -3.125 168.5 C-4.0727832 167.8797998 -5.02056641 167.25959961 -5.99707031 166.62060547 C-8.73282211 164.7658802 -10.71548611 163.09160072 -12.875 160.625 C-13.44734375 159.98820313 -14.0196875 159.35140625 -14.609375 158.6953125 C-20.31313829 150.43367598 -19.14653426 137.78880649 -17.47265625 128.2578125 C-14.42915163 113.81075278 -7.5989874 100.9739874 2.875 90.5 C2.58085327 85.21031913 0.42335017 80.8617108 -1.80859375 76.15625 C-2.1801358 75.35766068 -2.55167786 74.55907135 -2.93447876 73.73628235 C-4.13729498 71.15441854 -5.34997131 68.57731453 -6.5625 66 C-7.38748156 64.23175755 -8.21161718 62.46312018 -9.03491211 60.6940918 C-10.65549095 57.21316719 -12.2789772 53.73362808 -13.90527344 50.25537109 C-16.69383624 44.28706344 -19.45213658 38.30539916 -22.1875 32.3125 C-22.58573975 31.44882812 -22.98397949 30.58515625 -23.39428711 29.6953125 C-23.92807983 28.52548828 -23.92807983 28.52548828 -24.47265625 27.33203125 C-24.77179932 26.67952393 -25.07094238 26.0270166 -25.37915039 25.35473633 C-27.63637893 19.74158895 -28.00969325 14.10203897 -26.0625 8.375 C-20.08151547 -0.5000093 -10.26805916 -4.92053528 0 0 Z " fill="#292A49" transform="translate(197.125,9.5)"/>
<path d="M0 0 C5.51479116 4.05146043 7.81414091 10.51655367 10.54345703 16.57373047 C12.13795217 20.07787765 13.78389067 23.55679432 15.43359375 27.03515625 C22.09703627 41.10841837 28.66667551 55.21887018 34.875 69.5 C36.13054687 69.2834375 37.38609375 69.066875 38.6796875 68.84375 C54.24276859 66.22268137 67.29254931 66.33918233 82.875 69.5 C84.82312066 65.28255854 86.77094142 61.06497904 88.71826172 56.84716797 C90.36856721 53.27278308 92.02009013 49.698964 93.67236328 46.12548828 C97.26878965 38.34330518 100.86055838 30.56003836 104.37890625 22.7421875 C105.1217688 21.09669922 105.1217688 21.09669922 105.87963867 19.41796875 C106.76736293 17.44672429 107.64940808 15.47290844 108.5246582 13.49609375 C111.03255177 7.93836624 113.35219615 3.24193599 118.5 -0.3125 C124.15803488 -2.30329005 129.42634741 -2.30052104 135.125 -0.4375 C139.54354291 2.67556432 143.14890999 6.32172996 144.875 11.5 C145.88970535 23.06764095 139.03703862 33.65349726 134.30392456 43.90255737 C131.1412664 50.75930282 128.01040037 57.63075749 124.875 64.5 C124.57974426 65.14638428 124.28448853 65.79276855 123.98028564 66.45874023 C122.23845434 70.27657014 120.51886313 74.10370262 118.8125 77.9375 C118.38952637 78.86457764 117.96655273 79.79165527 117.53076172 80.74682617 C116.97219482 82.01490112 116.97219482 82.01490112 116.40234375 83.30859375 C116.07999756 84.02845459 115.75765137 84.74831543 115.42553711 85.48999023 C114.76578888 87.89872955 115.01585227 89.17674434 115.875 91.5 C117.29290581 93.34817476 117.29290581 93.34817476 119.0625 95.125 C126.61372071 103.52554001 130.50942679 112.79366712 133.875 123.5 C134.12378906 124.24636719 134.37257813 124.99273437 134.62890625 125.76171875 C137.26220278 135.13478121 138.0434101 149.00076323 133.203125 157.67578125 C129.05870046 163.36827025 124.77588554 167.47972551 117.875 169.5 C114.04010268 169.93298403 110.23144567 169.92034254 106.37524414 169.90405273 C105.23615097 169.91091599 104.0970578 169.91777924 102.92344666 169.92485046 C99.16888869 169.94310852 95.41474896 169.93928222 91.66015625 169.93359375 C89.0437354 169.93815593 86.42731574 169.94346161 83.81089783 169.94947815 C78.33100403 169.95949313 72.85122835 169.95622291 67.37133789 169.94604492 C61.05177666 169.9345662 54.73263994 169.94864051 48.41313463 169.9754414 C42.31501453 170.00032765 36.21708931 170.00276664 30.11892509 169.99632454 C27.53261039 169.99617134 24.9462875 170.00221422 22.36000252 170.01461601 C18.74106567 170.02952524 15.12305853 170.01884794 11.50415039 170.00170898 C10.44052277 170.01137695 9.37689514 170.02104492 8.28103638 170.03100586 C0.60881584 169.95508177 -4.76422365 168.4340111 -10.5859375 163.3515625 C-11.53339844 162.24941406 -11.53339844 162.24941406 -12.5 161.125 C-13.47066406 160.03058594 -13.47066406 160.03058594 -14.4609375 158.9140625 C-20.25834898 150.50373317 -19.1787181 137.97205999 -17.47265625 128.2578125 C-14.42915163 113.81075278 -7.5989874 100.9739874 2.875 90.5 C2.58085327 85.21031913 0.42335017 80.8617108 -1.80859375 76.15625 C-2.1801358 75.35766068 -2.55167786 74.55907135 -2.93447876 73.73628235 C-4.13729498 71.15441854 -5.34997131 68.57731453 -6.5625 66 C-7.38748156 64.23175755 -8.21161718 62.46312018 -9.03491211 60.6940918 C-10.65549095 57.21316719 -12.2789772 53.73362808 -13.90527344 50.25537109 C-16.69383624 44.28706344 -19.45213658 38.30539916 -22.1875 32.3125 C-22.78485962 31.01699219 -22.78485962 31.01699219 -23.39428711 29.6953125 C-23.75014893 28.91542969 -24.10601074 28.13554688 -24.47265625 27.33203125 C-24.77179932 26.67952393 -25.07094238 26.0270166 -25.37915039 25.35473633 C-27.63637893 19.74158895 -28.00969325 14.10203897 -26.0625 8.375 C-20.08151547 -0.5000093 -10.26805916 -4.92053528 0 0 Z " fill="#3B3B65" transform="translate(197.125,9.5)"/>
<path d="M0 0 C4.63621838 2.32768815 7.2187709 5.75264481 8.8825531 10.63803101 C9.17324173 11.8949173 9.46393036 13.15180359 9.76342773 14.44677734 C10.00819304 15.49100389 10.00819304 15.49100389 10.2579031 16.55632591 C12.0219966 24.2136223 13.54826236 31.92311788 15.04435921 39.63646317 C15.54918234 42.23629668 16.06011124 44.83486756 16.57261658 47.43319702 C18.02619937 54.80680947 19.47112501 62.18209258 20.9074707 69.55908203 C21.79297912 74.1047631 22.68696418 78.64871 23.58621025 83.19169235 C23.92475339 84.91097817 24.26004415 86.63090788 24.59193611 88.35149002 C25.05472254 90.74980174 25.52824444 93.14576624 26.00415039 95.54150391 C26.1366922 96.24285461 26.26923401 96.94420532 26.40579224 97.66680908 C27.53768671 103.27017321 28.91502376 107.83562456 33.44970703 111.48535156 C37.07459385 113.49220561 40.69010106 115.07191172 44.5546875 116.546875 C45.19736572 116.79840332 45.84004395 117.04993164 46.50219727 117.30908203 C48.87342072 118.23472434 51.24949257 119.14790784 53.625 120.0625 C58.94625 122.125 64.2675 124.1875 69.75 126.3125 C69.42 138.8525 69.09 151.3925 68.75 164.3125 C61.98809948 162.28392985 55.50302465 160.18039471 48.97265625 157.58203125 C48.08066025 157.22791672 47.18866425 156.87380219 46.26963806 156.50895691 C44.39724755 155.76266825 42.52588323 155.01380017 40.65551758 154.26245117 C37.82850691 153.13140414 34.9936653 152.02176628 32.15820312 150.91210938 C8.6105993 141.55395599 8.6105993 141.55395599 1.3125 130.875 C0.41724609 129.60849609 0.41724609 129.60849609 -0.49609375 128.31640625 C-4.50654431 121.44772811 -6.91344243 114.63293028 -8.44824219 106.85229492 C-8.63414413 105.95342056 -8.82004608 105.0545462 -9.01158142 104.12843323 C-9.6172245 101.18532041 -10.20762046 98.239403 -10.796875 95.29296875 C-11.21656643 93.22695906 -11.63684408 91.16106837 -12.05767822 89.09529114 C-12.93515109 84.77541603 -13.80495658 80.45408569 -14.66943359 76.1315918 C-15.77286386 70.61789472 -16.89614619 65.1084657 -18.02537155 59.60000134 C-18.89681984 55.33692511 -19.75715495 51.07166252 -20.61429596 46.80568886 C-21.02383803 44.77460584 -21.43685312 42.74421965 -21.85353851 40.71459007 C-27.36349046 13.8003564 -27.36349046 13.8003564 -23.625 6.3125 C-17.58851095 -1.3125388 -8.95339528 -4.15035893 0 0 Z " fill="#16162A" transform="translate(76.25,68.6875)"/>
<path d="M0 0 C4.48741845 2.48615324 7.11474899 5.40674698 8.75 10.3125 C9.96395485 21.52241858 7.04733603 32.64130924 4.83984375 43.5546875 C4.43020032 45.61141583 4.02099292 47.66823105 3.61219788 49.72512817 C2.75514244 54.02170401 1.88892382 58.31631265 1.0168457 62.60986328 C-0.0917441 68.07443946 -1.17130832 73.54429683 -2.24320316 79.01617241 C-3.07948831 83.2624554 -3.93439446 87.50483629 -4.79440117 91.74637222 C-5.19978856 93.75983907 -5.59888 95.77458544 -5.99116707 97.7906456 C-9.57881727 116.15256437 -14.4073285 131.50713586 -30.40234375 142.54666138 C-35.06127168 145.43567401 -39.99469804 147.39534249 -45.09375 149.37109375 C-46.18465942 149.80511002 -47.27556885 150.23912628 -48.39953613 150.68629456 C-50.68290352 151.59210055 -52.96871372 152.4917711 -55.25683594 153.38549805 C-58.7728689 154.75893306 -62.28141597 156.15022412 -65.7890625 157.54492188 C-68.01521867 158.42550707 -70.24176734 159.30510081 -72.46875 160.18359375 C-74.04674377 160.80686806 -74.04674377 160.80686806 -75.65661621 161.44273376 C-76.62522583 161.82055496 -77.59383545 162.19837616 -78.59179688 162.58764648 C-79.44543823 162.9218309 -80.29907959 163.25601532 -81.17858887 163.60032654 C-83.25 164.3125 -83.25 164.3125 -85.25 164.3125 C-85.58 151.7725 -85.91 139.2325 -86.25 126.3125 C-70.125 120.0625 -70.125 120.0625 -65.06982422 118.11621094 C-63.73122301 117.59366807 -62.39283021 117.07059088 -61.0546875 116.546875 C-60.372854 116.28664551 -59.69102051 116.02641602 -58.98852539 115.75830078 C-51.24148729 112.7216879 -51.24148729 112.7216879 -45.70759583 106.75262451 C-43.93953952 102.57977102 -43.06930415 98.53591405 -42.22875977 94.09765625 C-41.95976364 92.7355452 -41.95976364 92.7355452 -41.68533325 91.34591675 C-41.29856452 89.38238223 -40.91570465 87.41807454 -40.53634834 85.45309448 C-39.93477679 82.34070069 -39.32154574 79.23081027 -38.70506287 76.12133789 C-36.95502427 67.28301765 -35.22658896 58.44051078 -33.50463867 49.59667969 C-32.44912476 44.17992714 -31.38051794 38.76588626 -30.30415154 33.35324097 C-29.89751259 31.29382305 -29.4960604 29.23337382 -29.09994698 27.17190552 C-28.54569956 24.28783462 -27.97497363 21.40747061 -27.40063477 18.52734375 C-27.24206497 17.67937225 -27.08349518 16.83140076 -26.92012024 15.95773315 C-25.61324662 9.54228322 -23.56412565 5.059901 -18.1875 1 C-12.15413281 -2.46597689 -6.29246001 -2.91687866 0 0 Z " fill="#16162A" transform="translate(452.25,68.6875)"/>
<path d="M0 0 C1.89139458 0.0001133 1.89139458 0.0001133 3.82099915 0.00022888 C5.18690023 0.00533471 6.5528009 0.01055069 7.91870117 0.01586914 C9.32403005 0.01773569 10.72935957 0.01915847 12.13468933 0.02015686 C15.82211117 0.02396339 19.50949322 0.03377765 23.19689941 0.04486084 C26.96418714 0.05511514 30.73148152 0.05971797 34.4987793 0.06469727 C41.8822779 0.07487018 49.26566745 0.09444657 56.64916992 0.11352539 C56.64916992 11.66352539 56.64916992 23.21352539 56.64916992 35.11352539 C52.5319043 35.1509082 48.41463867 35.18829102 44.17260742 35.22680664 C40.87959101 35.26494116 37.58664026 35.30601372 34.29368591 35.34906769 C30.82317323 35.39363986 27.35277881 35.43309286 23.88208008 35.45996094 C19.895336 35.49106302 15.90908317 35.54584988 11.92260742 35.60180664 C10.68489594 35.60819656 9.44718445 35.61458649 8.17196655 35.62117004 C1.16032383 35.74073887 -3.7239955 36.09651255 -9.28198242 40.7199707 C-9.82806152 41.288125 -10.37414062 41.8562793 -10.93676758 42.44165039 C-11.5580957 43.0771582 -12.17942383 43.71266602 -12.81958008 44.36743164 C-13.44864258 45.02614258 -14.07770508 45.68485352 -14.72583008 46.36352539 C-18.40674313 50.17426317 -22.06291533 53.92412267 -26.10083008 57.35961914 C-29.55662593 60.33000795 -32.77115605 63.49924344 -35.95239258 66.75805664 C-36.44218597 67.25810211 -36.93197937 67.75814758 -37.43661499 68.27334595 C-39.46774963 70.34968394 -41.49641382 72.42808207 -43.51098633 74.52050781 C-45.00312489 76.0672659 -46.50778899 77.60089488 -48.01489258 79.13305664 C-48.89612793 80.041604 -49.77736328 80.95015137 -50.68530273 81.88623047 C-54.48087538 85.05778288 -57.87300025 85.94932208 -62.72583008 86.48852539 C-68.49404447 85.89181356 -72.68033695 83.82797886 -76.72583008 79.67602539 C-79.88438393 74.69522893 -81.35141188 70.06322146 -80.35083008 64.11352539 C-74.87508061 52.00125424 -63.02111128 42.56759646 -53.74975586 33.2722168 C-51.48061095 30.9933268 -49.2223838 28.70396444 -46.96411133 26.41430664 C-28.17799503 7.48809162 -28.17799503 7.48809162 -16.97583008 3.17602539 C-16.0193457 2.79575195 -15.06286133 2.41547852 -14.07739258 2.02368164 C-9.31617531 0.43433548 -5.01483871 -0.01004978 0 0 Z " fill="#16162B" transform="translate(88.350830078125,272.886474609375)"/>
<path d="M0 0 C7.98292685 -0.08425253 15.96421137 -0.16434477 23.94719696 -0.20700073 C27.66592239 -0.22798511 31.38427367 -0.25594964 35.1027832 -0.30175781 C38.69493544 -0.3457245 42.28672854 -0.36924205 45.87912941 -0.37950897 C47.89347318 -0.39032566 49.90767563 -0.4214672 51.92179871 -0.45318604 C67.76701972 -0.45698444 80.21066059 4.40095323 91.74609375 15.1640625 C92.30171494 15.6801004 92.85733612 16.19613831 93.42979431 16.72781372 C100.38192316 23.23128937 107.12954047 29.94348479 113.86010742 36.67480469 C116.08558848 38.89806545 118.31900953 41.11315049 120.55273438 43.328125 C121.98486259 44.75732408 123.41652081 46.1869943 124.84765625 47.6171875 C125.50806412 48.27040985 126.16847198 48.9236322 126.84889221 49.59664917 C132.21576614 54.9902231 136.64301132 59.7875336 137.3125 67.6875 C137.22414465 73.68461915 134.80943596 78.23695983 130.5625 82.375 C125.59773239 85.52338922 121.9319214 86.51137253 116 86 C109.95915886 83.96920911 106.41083646 80.94120503 102.03515625 76.390625 C101.39815292 75.74559021 100.7611496 75.10055542 100.10484314 74.43597412 C98.08098799 72.38329019 96.07127319 70.31743583 94.0625 68.25 C92.05479517 66.19947511 90.04417737 64.15189518 88.03086853 62.10687256 C86.78367941 60.83837112 85.54004504 59.56636013 84.30079651 58.2901001 C80.59701906 54.50302455 76.75352898 50.9576283 72.73049927 47.51100159 C69.95118058 45.08421354 67.47160381 42.39378176 64.95703125 39.69921875 C61.06111049 36.31653306 57.14963798 35.74705409 52.1081543 35.68115234 C50.36691536 35.65134781 50.36691536 35.65134781 48.59049988 35.62094116 C47.34762711 35.60938995 46.10475433 35.59783875 44.82421875 35.5859375 C43.54392288 35.56657135 42.26362701 35.5472052 40.9445343 35.5272522 C37.5531222 35.47606052 34.16167055 35.43636593 30.77008057 35.39910889 C27.30430459 35.35898751 23.83868873 35.3080375 20.37304688 35.2578125 C13.58209294 35.16018872 6.79126338 35.08057072 0 35 C0 23.45 0 11.9 0 0 Z " fill="#16162B" transform="translate(367,273)"/>
<path d="M0 0 C5.82599095 4.03337835 10.70727923 8.55932245 15.63452148 13.61206055 C18.24657774 16.28219015 20.85707019 18.77936391 23.8125 21.0625 C33.32691912 28.97179707 36.90594792 40.70756393 38.08203125 52.51953125 C37.85774295 62.03576327 35.40401079 70.48759877 31.7109375 79.1875 C31.28881989 80.21069336 30.86670227 81.23388672 30.43179321 82.28808594 C29.09127817 85.53041678 27.73374957 88.7652744 26.375 92 C25.04650002 95.19626319 23.72154499 98.39398019 22.39678955 101.59179688 C21.52613832 103.68943516 20.65242092 105.78580354 19.77557373 107.88085938 C17.70494046 112.83527811 15.67343022 117.79763392 13.74316406 122.80859375 C13.21416 124.17322754 13.21416 124.17322754 12.67446899 125.56542969 C12.02492146 127.25104762 11.38461814 128.94027279 10.75595093 130.63378906 C8.34715644 136.86908042 5.6847888 141.48030823 -0.3125 144.875 C-6.24792918 146.6858089 -10.64682693 146.86979235 -16.25 144.3125 C-20.73410376 141.80667731 -23.10146928 138.88263579 -25.3125 134.25 C-27.23875537 125.14406554 -23.40225022 117.16171124 -19.9765625 108.8984375 C-19.46853823 107.65051232 -18.96150668 106.4021826 -18.45541382 105.1534729 C-17.12842854 101.88713371 -15.78783364 98.62655465 -14.4442749 95.36700439 C-13.08444401 92.06067938 -11.73828379 88.74880016 -10.390625 85.4375 C-2.6504607 66.44381692 -2.6504607 66.44381692 -0.21069336 60.94506836 C1.38596639 57.06111866 2.17535381 54.09737265 1 50 C-1.17016981 47.0362441 -3.79821472 44.71547315 -6.5625 42.3125 C-7.9934231 41.05231928 -9.41212824 39.77808731 -10.81640625 38.48828125 C-11.45006104 37.93696533 -12.08371582 37.38564941 -12.73657227 36.81762695 C-14 35 -14 35 -13.79418945 32.48632812 C-12.7392237 29.18360104 -11.23041319 26.25946153 -9.625 23.1875 C-7.06404558 18.20412611 -4.82696769 13.29820629 -3 8 C-2.44148755 6.49851071 -1.87900332 4.99849266 -1.3125 3.5 C-0.879375 2.345 -0.44625 1.19 0 0 Z " fill="#16162A" transform="translate(364,359)"/>
<path d="M0 0 C2 1 2 1 3.26171875 4.578125 C3.74077412 6.13425345 4.21577727 7.69163308 4.6875 9.25 C6.98100637 16.56623441 9.78126209 22.83162815 13.77734375 29.3984375 C15 32 15 32 14.77392578 33.96435547 C13.8505608 36.39306753 12.77831179 37.45559865 10.83984375 39.171875 C9.8972168 40.04585938 9.8972168 40.04585938 8.93554688 40.9375 C7.6091066 42.14076156 6.27316387 43.33363446 4.92773438 44.515625 C3.98704102 45.39734375 3.98704102 45.39734375 3.02734375 46.296875 C2.15710571 47.07562988 2.15710571 47.07562988 1.26928711 47.87011719 C-0.68190379 51.14424479 -0.46826498 54.33737399 0 58 C1.04358933 61.60918276 1.04358933 61.60918276 2.640625 65.1640625 C2.9191481 65.82651474 3.1976712 66.48896698 3.4846344 67.17149353 C4.08338529 68.59125116 4.68851003 70.00833498 5.29946899 71.42288208 C6.26361121 73.65653342 7.20972374 75.89705722 8.15112305 78.14038086 C9.44960427 81.23267455 10.7534177 84.32261698 12.06201172 87.41064453 C14.76487473 93.79973576 17.4204619 100.20737655 20.02746582 106.63616943 C20.79387106 108.51678799 21.57386369 110.3913642 22.35449219 112.26611328 C28.35695416 127.06100143 28.35695416 127.06100143 25.9375 135.25 C23.76617881 140.22718374 20.34317105 142.70508968 15.625 145.3125 C9.20015444 146.99519765 4.65995288 146.27555486 -1.140625 143.36328125 C-6.74175342 139.25657155 -8.78364534 133.23064162 -11.23046875 127.00390625 C-11.62518875 126.0199437 -12.01990875 125.03598114 -12.42658997 124.02220154 C-13.68829093 120.87211975 -14.9382008 117.71751804 -16.1875 114.5625 C-17.41647146 111.48217931 -18.64785335 108.40282919 -19.87927246 105.32348633 C-20.69665877 103.27729458 -21.51233349 101.23041827 -22.32629395 99.18286133 C-24.37314096 94.03862037 -26.4432758 88.90591085 -28.5625 83.79101562 C-28.97397781 82.7964183 -29.38545563 81.80182098 -29.80940247 80.77708435 C-30.5875424 78.90138148 -31.36958654 77.02729151 -32.15629578 75.15516663 C-37.59437743 62.0409523 -38.75090174 49.11393409 -33.3359375 35.7109375 C-28.43838779 25.77263488 -20.84794943 18.67450619 -12.66796875 11.47412109 C-10.48021527 9.5406235 -8.3246406 7.57310925 -6.16918945 5.60375977 C-4.11820923 3.72986203 -2.0590051 1.86507075 0 0 Z " fill="#16162B" transform="translate(147,359)"/>
<path d="M0 0 C5.51479116 4.05146043 7.81414091 10.51655367 10.54345703 16.57373047 C12.13795202 20.07787732 13.78387027 23.55680418 15.43359375 27.03515625 C20.99028373 38.76936653 26.50507398 50.52557282 31.8125 62.375 C32.13605469 63.09284668 32.45960938 63.81069336 32.79296875 64.55029297 C34.875 69.25497381 34.875 69.25497381 34.875 71.5 C34.22015625 71.77972656 33.5653125 72.05945313 32.890625 72.34765625 C22.66749769 76.83832375 13.08478682 81.84997138 4.875 89.5 C3.35017593 87.21276389 2.20184819 85.20967939 1.0625 82.74487305 C0.7142215 81.99455811 0.36594299 81.24424316 0.0071106 80.47119141 C-0.3664859 79.65956543 -0.7400824 78.84793945 -1.125 78.01171875 C-1.51736847 77.16440186 -1.90973694 76.31708496 -2.31399536 75.4440918 C-3.58697257 72.69310713 -4.85618186 69.94040512 -6.125 67.1875 C-6.99192675 65.31025748 -7.85895151 63.43306022 -8.72607422 61.5559082 C-10.8255458 57.00853798 -12.92134288 52.45948636 -15.01550293 47.90966797 C-16.00307594 45.76480151 -16.99189599 43.62051768 -17.98144531 41.4765625 C-19.4085048 38.38211513 -20.83085509 35.28558314 -22.25 32.1875 C-22.64445313 31.3318042 -23.03890625 30.4761084 -23.4453125 29.59448242 C-23.7959375 28.82467041 -24.1465625 28.0548584 -24.5078125 27.26171875 C-24.94697998 26.302052 -24.94697998 26.302052 -25.39501953 25.32299805 C-27.63910419 19.71879063 -28.00503585 14.08834074 -26.0625 8.375 C-20.08151547 -0.5000093 -10.26805916 -4.92053528 0 0 Z " fill="#16162B" transform="translate(197.125,9.5)"/>
<path d="M0 0 C4.41854291 3.11306432 8.02390999 6.75922996 9.75 11.9375 C10.76141948 23.46768209 3.95247786 34.00890003 -0.76367188 44.22689819 C-7.76087837 59.3917878 -14.59391924 74.61948468 -21.25 89.9375 C-24.5227874 88.05351282 -27.42156408 86.04803878 -30.3125 83.625 C-36.90726155 78.41105117 -44.44748287 74.9702302 -52.25 71.9375 C-50.802916 67.30807829 -48.97548173 62.93407704 -46.94140625 58.5390625 C-46.61863205 57.83495239 -46.29585785 57.13084229 -45.96330261 56.40539551 C-44.91614469 54.12298657 -43.86456503 51.84265071 -42.8125 49.5625 C-41.72386623 47.19696373 -40.63586835 44.83113564 -39.54788208 42.46530151 C-38.82082181 40.88464461 -38.09334393 39.30417973 -37.365448 37.72390747 C-35.18297581 32.9822043 -33.02431366 28.23085457 -30.88671875 23.46875 C-30.39292725 22.37353027 -29.89913574 21.27831055 -29.39038086 20.14990234 C-28.48860418 18.14746724 -27.59196246 16.14270865 -26.70141602 14.13525391 C-24.15696719 8.51143501 -21.83671011 3.72356174 -16.625 0.125 C-10.96696512 -1.86579005 -5.69865259 -1.86302104 0 0 Z " fill="#16162B" transform="translate(332.25,9.0625)"/>
<path d="M0 0 C9.77744638 4.30596149 18.44201459 12.64557716 26.75488281 19.23046875 C29.8676314 21.68383997 33.00697653 24.10244111 36.14794922 26.51953125 C39.15356089 28.9221188 39.92484762 29.64302618 40.75 33.5625 C40.58130753 37.6624605 39.14953918 39.36901572 36.1875 42.125 C34.14933972 43.79972228 32.10381936 45.41221181 30 47 C29.28150879 47.54527344 28.56301758 48.09054687 27.82275391 48.65234375 C22.97486043 52.31052715 18.07571516 55.89186988 13.14648438 59.43945312 C11.34117581 60.7519568 9.56276507 62.08846755 7.796875 63.453125 C4.08142854 66.25680546 1.76147542 67.86489952 -2.875 68.6875 C-6.62338225 67.8628559 -7.87175704 67.19236444 -10 64 C-11.0625 60.625 -11.0625 60.625 -11 57 C-7.13243332 51.35715681 -1.97004753 47.79371226 3.5625 43.875 C5.25359098 42.66726103 6.94247187 41.45642025 8.62890625 40.2421875 C9.7437439 39.45110596 9.7437439 39.45110596 10.88110352 38.64404297 C13.11046078 36.91429394 15.04677512 35.03303289 17 33 C16.43015381 32.7328418 15.86030762 32.46568359 15.27319336 32.19042969 C11.07736437 29.99315097 7.37359149 27.04691931 3.5625 24.25 C2.2930957 23.33734375 2.2930957 23.33734375 0.99804688 22.40625 C-3.6659839 18.98766519 -7.70879487 15.7884337 -11 11 C-11.06932688 6.97904121 -10.59948073 4.86591661 -8.3125 1.5625 C-5.29277744 -0.47785308 -3.59994097 -0.29887986 0 0 Z " fill="#25E171" transform="translate(301,256)"/>
<path d="M0 0 C3.65599092 2.03110607 4.77130002 3.36204743 6.1875 7.3125 C5.92518689 12.47132455 3.60302865 14.47783619 0 18 C-3.12506906 20.60919117 -6.38094153 23.00196875 -9.6875 25.375 C-10.54150391 26.00277344 -11.39550781 26.63054687 -12.27539062 27.27734375 C-18.57133513 31.85711171 -18.57133513 31.85711171 -22 33 C-16.94455551 38.48105686 -10.91977283 42.52887993 -4.86132812 46.828125 C3.40282179 52.79127631 3.40282179 52.79127631 6 57 C6 60.92016134 5.55226285 63.17160572 3.375 66.4375 C0.04871858 68.62584304 -2.06479321 68.36635293 -6 68 C-9.0078125 66.375 -9.0078125 66.375 -12.125 64 C-12.98714111 63.35297119 -12.98714111 63.35297119 -13.86669922 62.69287109 C-15.17075451 61.71001168 -16.46872313 60.71904379 -17.76171875 59.72167969 C-20.30518202 57.76525484 -22.87041348 55.83937739 -25.4375 53.9140625 C-29.13352746 51.13015706 -32.82884489 48.34548526 -36.5078125 45.5390625 C-37.66240967 44.66048584 -37.66240967 44.66048584 -38.84033203 43.76416016 C-44.82830419 38.87278701 -44.82830419 38.87278701 -45.75 34.1875 C-45.6088775 31.49534071 -45.29892841 30.33892519 -43.50195312 28.30151367 C-42.52645508 27.49290894 -42.52645508 27.49290894 -41.53125 26.66796875 C-40.80518555 26.06476807 -40.07912109 25.46156738 -39.33105469 24.84008789 C-35.53497991 21.84354248 -31.66726113 18.96079889 -27.75 16.125 C-20.95446666 11.2085341 -20.95446666 11.2085341 -14.30859375 6.09375 C-12.76365234 4.87171875 -12.76365234 4.87171875 -11.1875 3.625 C-10.31480469 2.91601562 -9.44210938 2.20703125 -8.54296875 1.4765625 C-5.43201276 -0.32979904 -3.54444028 -0.402998 0 0 Z " fill="#25E171" transform="translate(216,256)"/>
<path d="M0 0 C4.45850936 0.79616239 5.90783917 1.93313458 8.5 5.625 C8.8347728 10.52228069 8.18858537 14.74863532 7.00292969 19.49072266 C6.84354416 20.13720261 6.68415863 20.78368256 6.51994324 21.44975281 C5.99579941 23.56509521 5.45949728 25.67710871 4.921875 27.7890625 C4.54995802 29.26914701 4.1784022 30.74932232 3.80718994 32.22958374 C3.02932925 35.3224949 2.24504175 38.41369083 1.45654297 41.50390625 C0.44908256 45.45565571 -0.53898698 49.4119665 -1.52190018 53.36988258 C-2.28335912 56.42456591 -3.05667544 59.47615446 -3.83339691 62.52698898 C-4.20259873 63.98435726 -4.56776984 65.44275303 -4.92874908 66.90217972 C-5.43536831 68.94415351 -5.95825818 70.98129591 -6.48535156 73.01806641 C-6.77847229 74.17609772 -7.07159302 75.33412903 -7.37359619 76.5272522 C-8.60713116 79.91962376 -9.99244154 82.03996183 -12.5 84.625 C-15.9375 85.6875 -15.9375 85.6875 -19.5 85.625 C-22.30189446 83.85858828 -24.01524911 82.59450178 -25.5 79.625 C-25.73764362 74.727479 -25.1934114 70.50658309 -24.01879883 65.75927734 C-23.86101959 65.11279739 -23.70324036 64.46631744 -23.54067993 63.80024719 C-23.02158154 61.68485803 -22.49016693 59.57282932 -21.95703125 57.4609375 C-21.58764827 55.98081787 -21.21848581 54.5006432 -20.84953308 53.02041626 C-20.07615447 49.92743842 -19.29587752 46.83629304 -18.51147461 43.74609375 C-17.50980023 39.79507873 -16.53206565 35.8385618 -15.56023121 31.88011742 C-14.80609357 28.82464996 -14.0360202 25.77336386 -13.26148033 22.72301102 C-12.89422328 21.26605326 -12.53264287 19.80765187 -12.17698097 18.34782028 C-11.67733374 16.30456385 -11.15559192 14.26817185 -10.62817383 12.23193359 C-10.33727371 11.07390228 -10.0463736 9.91587097 -9.74665833 8.7227478 C-7.75567193 3.77546305 -5.30615582 0.94752783 0 0 Z " fill="#25DF70" transform="translate(264.5,247.375)"/>
</svg>
